<?xml version="1.0" encoding="UTF-8" standalone="no"?><!DOCTYPE svg PUBLIC "-//W3C//DTD SVG 1.1//EN" "http://www.w3.org/Graphics/SVG/1.1/DTD/svg11.dtd"><svg width="100%" height="100%" viewBox="0 0 2547 1531" version="1.1" xmlns="http://www.w3.org/2000/svg" xmlns:xlink="http://www.w3.org/1999/xlink" xml:space="preserve" xmlns:serif="http://www.serif.com/" style="fill-rule:evenodd;clip-rule:evenodd;stroke-linejoin:round;stroke-miterlimit:2;"><path id="Eingangswand-Basis" d="M1556.536,742.077l0,-1.134c0,-5.093 -4.191,-9.284 -9.284,-9.284l-94.82,0c-5.093,-0 -9.284,-4.191 -9.284,-9.284l0,-92.127c0,-5.093 -4.191,-9.284 -9.284,-9.284l-321.595,0c-5.093,0 -9.284,4.191 -9.284,9.284l0,92.127c0,5.093 -4.191,9.284 -9.284,9.284l-94.82,0c-5.093,0 -9.284,4.191 -9.284,9.284l0,1.134c0,5.093 4.191,9.284 9.284,9.284l10.38,0c7.775,0 14.173,6.398 14.173,14.173c0,7.775 -6.398,14.173 -14.173,14.173l-7.922,0c-7.515,-0 -14.73,2.989 -20.044,8.303l-734.587,734.587c-5.314,5.314 -12.529,8.303 -20.044,8.303l-209.487,0c-9.33,0 -17.008,-7.678 -17.008,-17.008c0,-1.984 0.347,-3.953 1.026,-5.817l528.442,-1451.881c3.253,-8.938 11.799,-14.921 21.31,-14.921c8.092,0 15.593,4.331 19.639,11.339l27.955,48.419c-0.21,0.784 -0.316,1.591 -0.316,2.403c0,5.093 4.191,9.284 9.284,9.284c4.189,0 7.883,-2.835 8.967,-6.881l9.174,-5.296c0.784,0.21 1.591,0.316 2.403,0.316c5.093,0 9.284,-4.191 9.284,-9.284c0,-4.189 -2.835,-7.883 -6.881,-8.967l-27.955,-48.419c-1.99,-3.447 -3.038,-7.358 -3.038,-11.339c0,-12.441 10.237,-22.677 22.677,-22.677l1301.856,0c12.441,0 22.677,10.237 22.677,22.677c0,3.98 -1.048,7.892 -3.038,11.339l-27.955,48.419c-4.046,1.084 -6.881,4.779 -6.881,8.967c0,5.093 4.191,9.284 9.284,9.284c0.811,0 1.619,-0.106 2.402,-0.316l9.174,5.296c1.084,4.046 4.779,6.881 8.967,6.881c5.093,0 9.284,-4.191 9.284,-9.284c0,-0.811 -0.106,-1.619 -0.316,-2.403l27.955,-48.419c4.046,-7.008 11.547,-11.339 19.639,-11.339c9.511,0 18.057,5.984 21.31,14.921l528.442,1451.881c0.679,1.864 1.026,3.833 1.026,5.817c0,9.33 -7.678,17.008 -17.008,17.008l-209.487,0c-7.515,0 -14.73,-2.989 -20.044,-8.303l-734.587,-734.587c-5.314,-5.314 -12.529,-8.303 -20.044,-8.303l-7.922,0c-7.775,0 -14.173,-6.398 -14.173,-14.173c0,-7.775 6.398,-14.173 14.173,-14.173l10.38,0c5.093,0 9.284,-4.191 9.284,-9.284Zm-650.341,-181.877c-0.37,-0.651 -32.798,-57.251 -38.029,-65.868c-0.382,-0.661 -0.53,-1.432 -0.421,-2.187c0.063,-0.44 0.095,-0.883 0.095,-1.327c0,-5.093 -4.191,-9.284 -9.284,-9.284c-3.789,0 -7.215,2.32 -8.621,5.839c-0.283,0.709 -0.797,1.302 -1.458,1.684l-6.951,4.013c-0.661,0.382 -1.432,0.53 -2.187,0.421c-0.44,-0.063 -0.883,-0.095 -1.327,-0.095c-5.093,0 -9.284,4.191 -9.284,9.284c0,3.789 2.32,7.215 5.839,8.621c0.709,0.283 1.302,0.797 1.684,1.458l38.029,65.869c0.382,0.661 0.53,1.432 0.421,2.187c-0.063,0.44 -0.095,0.883 -0.095,1.327c0,5.093 4.191,9.284 9.284,9.284c3.789,0 7.215,-2.32 8.621,-5.839c0.283,-0.709 0.797,-1.302 1.458,-1.684l6.951,-4.013c0.661,-0.382 1.432,-0.53 2.187,-0.421c0.44,0.063 0.883,0.095 1.327,0.095c5.093,0 9.284,-4.191 9.284,-9.284c0,-3.789 -2.32,-7.215 -5.839,-8.621c-0.709,-0.283 -1.684,-1.458 -1.684,-1.458Zm948.257,-297.844c0,0 0.975,-1.175 1.684,-1.458c3.519,-1.406 5.839,-4.832 5.839,-8.621c0,-5.093 -4.191,-9.284 -9.284,-9.284c-0.444,0 -0.888,0.032 -1.327,0.095c-0.755,0.109 -1.526,-0.039 -2.187,-0.421l-6.951,-4.013c-0.661,-0.382 -1.175,-0.975 -1.458,-1.684c-1.406,-3.519 -4.832,-5.839 -8.621,-5.839c-5.093,0 -9.284,4.191 -9.284,9.284c0,0.444 0.032,0.888 0.095,1.327c0.109,0.755 -0.039,1.526 -0.421,2.187l-38.029,65.869c-0.382,0.661 -0.975,1.175 -1.684,1.458c-3.519,1.406 -5.839,4.832 -5.839,8.621c0,5.093 4.191,9.284 9.284,9.284c0.444,0 0.888,-0.032 1.327,-0.095c0.755,-0.109 1.526,0.039 2.187,0.421l6.951,4.013c0.661,0.382 1.175,0.975 1.458,1.684c1.406,3.519 4.832,5.839 8.621,5.839c5.093,0 9.284,-4.191 9.284,-9.284c0,-0.444 -0.032,-0.888 -0.095,-1.327c-0.109,-0.755 0.039,-1.526 0.421,-2.187c5.231,-8.617 37.659,-65.217 38.029,-65.868Zm-144.569,250.401c0,-0 0.975,-1.175 1.684,-1.458c3.519,-1.406 5.839,-4.832 5.839,-8.621c0,-5.093 -4.191,-9.284 -9.284,-9.284c-0.444,0 -0.888,0.032 -1.327,0.095c-0.755,0.109 -1.526,-0.039 -2.187,-0.421l-6.951,-4.013c-0.661,-0.382 -1.175,-0.975 -1.458,-1.684c-1.406,-3.519 -4.832,-5.839 -8.621,-5.839c-5.093,0 -9.284,4.191 -9.284,9.284c0,0.444 0.032,0.888 0.095,1.327c0.109,0.755 -0.039,1.526 -0.421,2.187l-38.029,65.869c-0.382,0.661 -0.975,1.175 -1.684,1.458c-3.519,1.406 -5.839,4.832 -5.839,8.621c0,5.093 4.191,9.284 9.284,9.284c0.444,0 0.888,-0.032 1.327,-0.095c0.755,-0.109 1.526,0.039 2.187,0.421l6.951,4.013c0.661,0.382 1.175,0.975 1.458,1.684c1.406,3.519 4.832,5.839 8.621,5.839c5.093,0 9.284,-4.191 9.284,-9.284c0,-0.444 -0.032,-0.888 -0.095,-1.327c-0.109,-0.755 0.039,-1.526 0.421,-2.187c5.231,-8.617 37.659,-65.217 38.029,-65.868Zm-948.257,-202.958c-0.37,-0.651 -32.798,-57.251 -38.029,-65.868c-0.382,-0.661 -0.53,-1.432 -0.421,-2.187c0.063,-0.44 0.095,-0.883 0.095,-1.327c0,-5.093 -4.191,-9.284 -9.284,-9.284c-3.789,0 -7.215,2.32 -8.621,5.839c-0.283,0.709 -0.797,1.302 -1.458,1.684l-6.951,4.013c-0.661,0.382 -1.432,0.53 -2.187,0.421c-0.44,-0.063 -0.883,-0.095 -1.327,-0.095c-5.093,0 -9.284,4.191 -9.284,9.284c0,3.789 2.32,7.215 5.839,8.621c0.709,0.283 1.302,0.797 1.684,1.458l38.029,65.869c0.382,0.661 0.53,1.432 0.421,2.187c-0.063,0.44 -0.095,0.883 -0.095,1.327c0,5.093 4.191,9.284 9.284,9.284c3.789,0 7.215,-2.32 8.621,-5.839c0.283,-0.709 0.797,-1.302 1.458,-1.684l6.951,-4.013c0.661,-0.382 1.432,-0.53 2.187,-0.421c0.44,0.063 0.883,0.095 1.327,0.095c5.093,0 9.284,-4.191 9.284,-9.284c0,-3.789 -2.32,-7.215 -5.839,-8.621c-0.709,-0.283 -1.684,-1.458 -1.684,-1.458Z" style="fill:#00031a;"/></svg>