<?xml version="1.0" encoding="UTF-8" standalone="no"?><!DOCTYPE svg PUBLIC "-//W3C//DTD SVG 1.1//EN" "http://www.w3.org/Graphics/SVG/1.1/DTD/svg11.dtd"><svg width="100%" height="100%" viewBox="0 0 575 543" version="1.1" xmlns="http://www.w3.org/2000/svg" xmlns:xlink="http://www.w3.org/1999/xlink" xml:space="preserve" xmlns:serif="http://www.serif.com/" style="fill-rule:evenodd;clip-rule:evenodd;stroke-linejoin:round;stroke-miterlimit:2;"><path id="Eingangswand-Pocket" d="M108.605,542.767l-99.333,0c-2.459,0 -4.818,-0.977 -6.557,-2.716c-1.739,-1.739 -2.716,-4.097 -2.716,-6.557l0,-136.234c0,-5.828 4.765,-10.624 10.556,-10.624l553.388,0c5.791,0 10.556,4.796 10.556,10.624l-0,136.234c0,2.459 -0.977,4.818 -2.716,6.557c-1.739,1.739 -4.097,2.716 -6.557,2.716l-99.333,-0c-5.093,0 -9.284,-4.191 -9.284,-9.284l0,-93.327c0,-5.093 -4.191,-9.284 -9.284,-9.284l-320.155,0c-5.093,0 -9.284,4.191 -9.284,9.284l-0,93.327c0,5.093 -4.191,9.284 -9.284,9.284Zm266.982,-384.43c-1.179,3.385 -2.552,6.699 -4.112,9.926c-1.563,3.235 -1.046,7.109 1.311,9.821l15.113,17.386c3.084,3.548 2.896,8.945 -0.428,12.269l-20.044,20.044c-3.324,3.324 -8.721,3.512 -12.269,0.428l-17.386,-15.113c-2.712,-2.357 -6.586,-2.874 -9.821,-1.311c-3.292,1.591 -6.674,2.987 -10.13,4.182l-18.404,-56.642c13.13,-5.03 21.848,-17.705 21.848,-31.765c0,-18.661 -15.355,-34.016 -34.016,-34.016c-18.661,0 -34.016,15.355 -34.016,34.016c0,14.061 8.718,26.736 21.848,31.765l-18.404,56.642c-3.455,-1.195 -6.838,-2.591 -10.13,-4.182c-3.235,-1.563 -7.109,-1.046 -9.821,1.311l-17.386,15.113c-3.548,3.084 -8.945,2.896 -12.269,-0.428l-20.044,-20.044c-3.324,-3.324 -3.512,-8.721 -0.428,-12.269l15.113,-17.386c2.357,-2.712 2.874,-6.586 1.311,-9.821c-1.56,-3.227 -2.932,-6.541 -4.112,-9.926c-1.182,-3.393 -4.287,-5.767 -7.871,-6.017l-22.98,-1.607c-4.689,-0.328 -8.372,-4.277 -8.372,-8.978l0,-28.347c-0,-4.701 3.683,-8.65 8.372,-8.978l22.98,-1.607c3.584,-0.251 6.689,-2.624 7.871,-6.017c1.179,-3.385 2.552,-6.699 4.112,-9.926c1.563,-3.235 1.046,-7.109 -1.311,-9.821l-15.113,-17.386c-3.084,-3.548 -2.896,-8.945 0.428,-12.269l20.044,-20.044c3.324,-3.324 8.721,-3.512 12.269,-0.428l17.386,15.113c2.712,2.357 6.586,2.874 9.821,1.311c3.227,-1.56 6.541,-2.932 9.926,-4.112c3.393,-1.182 5.767,-4.287 6.017,-7.871l1.607,-22.98c0.328,-4.689 4.277,-8.372 8.978,-8.372l28.347,0c4.701,-0 8.65,3.683 8.978,8.372l1.607,22.98c0.251,3.584 2.624,6.689 6.017,7.871c3.385,1.179 6.699,2.552 9.926,4.112c3.235,1.563 7.109,1.046 9.821,-1.311l17.386,-15.113c3.548,-3.084 8.945,-2.896 12.269,0.428l20.044,20.044c3.324,3.324 3.512,8.721 0.428,12.269l-15.113,17.386c-2.357,2.712 -2.874,6.586 -1.311,9.821c1.56,3.227 2.932,6.541 4.112,9.926c1.182,3.393 4.287,5.767 7.871,6.017l22.98,1.607c4.689,0.328 8.372,4.277 8.372,8.978l0,28.347c0,4.701 -3.683,8.65 -8.372,8.978l-22.98,1.607c-3.584,0.251 -6.689,2.624 -7.871,6.017Z" style="fill:#009ee3;"/></svg>